<?xml version="1.0" encoding="UTF-8"?>
<svg width="90px" height="60px" viewBox="0 0 90 60" version="1.1" xmlns="http://www.w3.org/2000/svg" xmlns:xlink="http://www.w3.org/1999/xlink">
    <!-- Generator: Sketch 47.1 (45422) - http://www.bohemiancoding.com/sketch -->
    <title>icon</title>
    <desc>Created with Sketch.</desc>
    <defs></defs>
    <g id="Page-1" stroke="none" stroke-width="1" fill="none" fill-rule="evenodd">
        <g id="icon">
            <rect id="Rectangle-2" fill="#88ABD6" x="0" y="0" width="90" height="60" rx="8"></rect>
            <path d="M88.4320542,3.24218182 C89.1065169,4.15247679 89.5923318,5.21096163 89.8317134,6.35985072 C89.6896522,5.83806922 89.4922533,5.32293964 89.2370457,4.8220665 L88.4320542,3.24218182 Z M90,9.77314603 L90,52 C90,56.418278 86.418278,60 82,60 L8,60 C3.581722,60 -3.47095419e-16,56.418278 -8.8817842e-16,52 L-4.02234549e-16,27.926537 L9.04645849,45.6812115 C11.0523147,49.617926 15.8697202,51.1831959 19.8064347,49.1773397 L85.7409175,15.5820427 C88.0897885,14.3852331 89.5944243,12.1875108 90,9.77314603 Z" id="Combined-Shape" fill="#C1D4EB"></path>
            <path d="M85.0795874,59.3857642 C84.131682,59.7814638 83.091362,60 82,60 L8,60 C3.581722,60 5.41083001e-16,56.418278 0,52 L0,8 L0,8 C-1.43279093e-16,6.83003742 0.251148009,5.7187336 0.702472762,4.71705981 C-0.723009927,8.38760934 0.74572821,12.6387428 4.28591084,14.601098 L85.0795874,59.3857642 Z" id="Combined-Shape" fill="#A2C4ED"></path>
            <rect id="Rectangle" fill="#8F98A3" x="35" y="20" width="19" height="32"></rect>
            <path d="M65.2169134,47.1290933 C65.2169134,49.4904907 64.5046017,51.3444527 63.079957,52.6910347 C61.6553122,54.0376167 59.7623195,54.7108976 57.400922,54.7108976 L31.8159914,54.7108976 C29.4545939,54.7108976 27.5616012,54.0376167 26.1369564,52.6910347 C24.7123117,51.3444527 24,49.4904907 24,47.1290933 C24,45.9386367 24.0439096,44.7872287 24.1317302,43.6748349 C24.2195507,42.562441 24.4049469,41.3378504 24.6879243,40.0010262 C24.9709017,38.664202 25.3368152,37.4591267 25.7856759,36.3857643 C26.2345366,35.3124018 26.8541502,34.3024804 27.6445353,33.3559698 C28.4349204,32.4094593 29.3472648,31.682511 30.381596,31.1751033 L27.7469921,24.7349606 L34.0114946,24.7349606 C33.5821496,23.485957 33.3674803,22.2369721 33.3674803,20.9879685 C33.3674803,20.7537803 33.3869957,20.4415341 33.4260271,20.0512204 C29.6399848,19.2705932 27.7469921,18.3338545 27.7469921,17.2409763 C27.7469921,16.1285825 29.7961079,15.1625707 33.8944011,14.3429121 C34.2261677,13.1329399 34.7286889,11.8254088 35.4019799,10.4202797 C36.075271,9.0151507 36.7631884,7.9027735 37.465753,7.0831149 C38.0902548,6.3610347 38.8318395,6 39.6905295,6 C40.276,6 41.0956463,6.3024885 42.1494931,6.9074746 C43.2033399,7.5124607 44.0229863,7.8149493 44.6084567,7.8149493 C45.1939271,7.8149493 46.0135735,7.5124607 47.0674203,6.9074746 C48.1212671,6.3024885 48.9409134,6 49.5263839,6 C50.3850739,6 51.1266586,6.3610347 51.7511604,7.0831149 C52.453725,7.9027735 53.1416424,9.0151507 53.8149335,10.4202797 C54.4882245,11.8254088 54.9907457,13.1329399 55.3225123,14.3429121 C59.4208055,15.1625707 61.4699213,16.1285825 61.4699213,17.2409763 C61.4699213,18.3338545 59.5769286,19.2705932 55.7908863,20.0512204 C55.9274961,21.6319907 55.7323422,23.1932218 55.2054188,24.7349606 L61.4699213,24.7349606 L59.0695044,31.3214702 C60.2989924,31.9654877 61.3479445,32.9071052 62.2163924,34.146351 C63.0848402,35.3855968 63.7239692,36.7858259 64.1337985,38.3470805 C64.5436278,39.908335 64.826601,41.3866257 64.9827264,42.7819969 C65.1388519,44.1773681 65.2169134,45.6263858 65.2169134,47.1290933 Z M40.8614646,50.9639055 L43.6717087,37.8494331 L40.8614646,34.1024409 L37.1144724,32.2289449 L40.8614646,50.9639055 Z M48.3554488,50.9639055 L52.102441,32.2289449 L48.3554488,34.1024409 L45.5452047,37.8494331 L48.3554488,50.9639055 Z M53.039189,21.3977957 C53.0001576,21.319733 52.9611269,21.2611868 52.9220955,21.2221555 C52.7269387,21.06603 51.7902,20.9879685 50.1118514,20.9879685 C48.7457537,20.9879685 47.1162187,21.1733647 45.2231976,21.5441626 C45.0865878,21.583194 44.8816762,21.6027094 44.6084567,21.6027094 C44.3352372,21.6027094 44.1303256,21.583194 43.9937158,21.5441626 C42.1006947,21.1733647 40.4711597,20.9879685 39.105062,20.9879685 C37.4267134,20.9879685 36.4899747,21.06603 36.2948179,21.2221555 C36.2557865,21.2611868 36.2167558,21.319733 36.1777244,21.3977957 C36.2167558,21.749078 36.2557865,22.0125358 36.2948179,22.1881769 C36.3338493,22.2467239 36.407032,22.310149 36.5143682,22.3784538 C36.6217045,22.4467587 36.6948872,22.5492145 36.7339186,22.6858243 C36.7729499,22.763887 36.8461326,22.9639197 36.9534689,23.2859285 C37.0608051,23.6079372 37.129109,23.80797 37.1583825,23.8860327 C37.187656,23.9640954 37.2608387,24.1299762 37.3779328,24.3836801 C37.4950269,24.637384 37.5779673,24.8032648 37.6267565,24.8813275 C37.6755457,24.9593902 37.763365,25.0959979 37.8902169,25.2911548 C38.0170688,25.4863116 38.1341612,25.6180404 38.2414974,25.6863453 C38.3488337,25.7546502 38.4854414,25.8473483 38.6513247,25.9644424 C38.817208,26.0815365 38.9879676,26.159598 39.1636088,26.1986294 C39.3392499,26.2376608 39.5392826,26.2766915 39.763713,26.3157229 C39.9881433,26.3547543 40.2272068,26.3742697 40.4809107,26.3742697 C41.1834752,26.3742697 41.7591792,26.2522985 42.2080399,26.0083525 C42.6569005,25.7644064 42.9740256,25.4716756 43.1594246,25.1301512 C43.3448236,24.7886268 43.4863101,24.4519863 43.5838885,24.1202197 C43.6814669,23.7884531 43.7936804,23.5006011 43.9205324,23.2566551 C44.0473843,23.0127091 44.2181439,22.8907379 44.4328164,22.8907379 L44.784097,22.8907379 C44.9987695,22.8907379 45.1695291,23.0127091 45.296381,23.2566551 C45.423233,23.5006011 45.5354465,23.7884531 45.6330249,24.1202197 C45.7306033,24.4519863 45.8720898,24.7886268 46.0574888,25.1301512 C46.2428878,25.4716756 46.5600129,25.7644064 47.0088735,26.0083525 C47.4577342,26.2522985 48.0334382,26.3742697 48.7360027,26.3742697 C48.9897066,26.3742697 49.2287701,26.3547543 49.4532004,26.3157229 C49.6776308,26.2766915 49.8776635,26.2376608 50.0533046,26.1986294 C50.2289458,26.159598 50.3997054,26.0815365 50.5655887,25.9644424 C50.731472,25.8473483 50.8680797,25.7546502 50.975416,25.6863453 C51.0827522,25.6180404 51.1998446,25.4863116 51.3266965,25.2911548 C51.4535484,25.0959979 51.5413677,24.9593902 51.5901569,24.8813275 C51.6389461,24.8032648 51.7218865,24.637384 51.8389806,24.3836801 C51.9560747,24.1299762 52.0292574,23.9640954 52.0585309,23.8860327 C52.0878044,23.80797 52.1561083,23.6079372 52.2634445,23.2859285 C52.3707808,22.9639197 52.4439635,22.763887 52.4829948,22.6858243 C52.5220262,22.5492145 52.5952089,22.4467587 52.7025452,22.3784538 C52.8098814,22.310149 52.8830641,22.2467239 52.9220955,22.1881769 C52.9611269,22.0125358 53.0001576,21.749078 53.039189,21.3977957 Z" id="Guest" fill="#FFFFFF" fill-rule="nonzero"></path>
        </g>
    </g>
</svg>